<svg id="Capa_1" data-name="Capa 1" xmlns="http://www.w3.org/2000/svg" viewBox="0 0 31.55 31.55"><defs><style>.cls-1{fill:#010001;}</style></defs><path class="cls-1" d="M18.55,2.07a2.9,2.9,0,0,0-5.55,0l-.19.67a2.88,2.88,0,0,1-3.59,2,2.45,2.45,0,0,1-.56-.23l-.61-.33A2.89,2.89,0,0,0,4.13,8l.33.62a2.88,2.88,0,0,1-1.72,4.15L2.07,13a2.9,2.9,0,0,0,0,5.55l.67.19a2.88,2.88,0,0,1,2,3.59,2.45,2.45,0,0,1-.23.56l-.33.61A2.89,2.89,0,0,0,8,27.42l.62-.33a2.9,2.9,0,0,1,4.15,1.72l.19.67a2.9,2.9,0,0,0,5.55,0l.19-.67a2.9,2.9,0,0,1,3.59-2,3,3,0,0,1,.56.24l.61.33a2.89,2.89,0,0,0,3.92-3.91l-.33-.62a2.9,2.9,0,0,1,1.72-4.15l.67-.19a2.9,2.9,0,0,0,0-5.55l-.67-.19a2.9,2.9,0,0,1-2-3.59,3,3,0,0,1,.24-.56l.33-.61a2.89,2.89,0,0,0-3.91-3.92l-.62.33a2.9,2.9,0,0,1-4.15-1.72ZM15.77,21.55a5.78,5.78,0,1,1,5.78-5.77,5.77,5.77,0,0,1-5.78,5.77Z"/></svg>